<svg width="140" height="28" viewBox="0 0 140 28" fill="none" xmlns="http://www.w3.org/2000/svg">
<path fill-rule="evenodd" clip-rule="evenodd" d="M15 21.5L7.35882 25.5172L8.81816 17.0086L2.63629 10.9828L11.1794 9.74139L15 2L18.8206 9.74139L27.3638 10.9828L21.1819 17.0086L22.6412 25.5172L15 21.5Z" fill="#EFC4DC"/>
<path fill-rule="evenodd" clip-rule="evenodd" d="M19.9771 22.6033L18.6446 14.8342L24.2893 9.33201L16.4886 8.1985L13 1.12988L9.51144 8.1985L1.71075 9.33201L7.35538 14.8342L6.02287 22.6033L13 18.9352L19.9771 22.6033Z" stroke="#423D76"/>
<path fill-rule="evenodd" clip-rule="evenodd" d="M43 21.5L35.3588 25.5172L36.8182 17.0086L30.6363 10.9828L39.1794 9.74139L43 2L46.8206 9.74139L55.3638 10.9828L49.1819 17.0086L50.6412 25.5172L43 21.5Z" fill="#EFC4DC"/>
<path fill-rule="evenodd" clip-rule="evenodd" d="M47.9771 22.6033L46.6446 14.8342L52.2893 9.33201L44.4886 8.1985L41 1.12988L37.5114 8.1985L29.7108 9.33201L35.3554 14.8342L34.0229 22.6033L41 18.9352L47.9771 22.6033Z" stroke="#423D76"/>
<path fill-rule="evenodd" clip-rule="evenodd" d="M71 21.5L63.3588 25.5172L64.8181 17.0086L58.6362 10.9828L67.1794 9.74139L71 2L74.8206 9.74139L83.3637 10.9828L77.1818 17.0086L78.6412 25.5172L71 21.5Z" fill="#EFC4DC"/>
<path fill-rule="evenodd" clip-rule="evenodd" d="M75.9771 22.6033L74.6446 14.8342L80.2892 9.33201L72.4885 8.1985L68.9999 1.12988L65.5114 8.1985L57.7107 9.33201L63.3553 14.8342L62.0228 22.6033L68.9999 18.9352L75.9771 22.6033Z" stroke="#423D76"/>
<path fill-rule="evenodd" clip-rule="evenodd" d="M99 21.5L91.3588 25.5172L92.8181 17.0086L86.6362 10.9828L95.1794 9.74139L99 2L102.821 9.74139L111.364 10.9828L105.182 17.0086L106.641 25.5172L99 21.5Z" fill="#EFC4DC"/>
<path fill-rule="evenodd" clip-rule="evenodd" d="M103.977 22.6033L102.645 14.8342L108.289 9.33201L100.489 8.1985L96.9999 1.12988L93.5114 8.1985L85.7107 9.33201L91.3553 14.8342L90.0228 22.6033L96.9999 18.9352L103.977 22.6033Z" stroke="#423D76"/>
<path fill-rule="evenodd" clip-rule="evenodd" d="M127 21.5L119.359 25.5172L120.818 17.0086L114.636 10.9828L123.179 9.74139L127 2V21.5Z" fill="#EFC4DC"/>
<path fill-rule="evenodd" clip-rule="evenodd" d="M131.977 22.6033L130.645 14.8342L136.289 9.33201L128.489 8.1985L125 1.12988L121.511 8.1985L113.711 9.33201L119.355 14.8342L118.023 22.6033L125 18.9352L131.977 22.6033Z" stroke="#423D76"/>
</svg>
